<svg width="277" height="158" fill="none" xmlns="http://www.w3.org/2000/svg"><rect x=".301" width="276.233" height="158" rx="14.149" fill="#16194F"/><mask id="a" style="mask-type:alpha" maskUnits="userSpaceOnUse" x="0" y="0" width="277" height="158"><rect x=".301" width="276.233" height="158" rx="14.149" fill="#16194F"/></mask><g mask="url(#a)"><path d="M54.18-72.242c13.328-13.209 34.812-13.21 48.14 0l5.605 5.555a34.194 34.194 0 0020.203 9.688l7.757.883c18.733 2.132 32.205 19.026 30.116 37.764l-.823 7.377a34.193 34.193 0 005.043 22.001l3.929 6.242c10.068 16 5.245 37.132-10.769 47.178l-6.392 4.01a34.198 34.198 0 00-14.064 17.561l-2.552 7.214c-6.268 17.717-25.659 27.054-43.418 20.909l-7.522-2.603a34.193 34.193 0 00-22.365 0l-7.523 2.603c-17.759 6.145-37.15-3.192-43.418-20.909l-2.552-7.214A34.195 34.195 0 00-.49 68.457l-6.392-4.01C-22.894 54.4-27.718 33.266-17.65 17.267l3.928-6.242a34.194 34.194 0 005.043-22.001l-.823-7.377C-11.59-37.09 1.882-53.984 20.616-56.116l7.756-.883a34.194 34.194 0 0020.203-9.688l5.605-5.555z" fill="#F2F6FF"/><path d="M207.709-22.13c13.328-13.209 34.812-13.209 48.14 0l5.605 5.556a34.194 34.194 0 0020.203 9.687l7.756.883c18.734 2.133 32.206 19.026 30.117 37.764l-.823 7.377a34.193 34.193 0 005.043 22.002l3.928 6.241c10.069 16 5.245 37.133-10.768 47.179l-6.392 4.01a34.19 34.19 0 00-14.064 17.56l-2.552 7.214c-6.269 17.717-25.659 27.055-43.419 20.909l-7.522-2.603a34.193 34.193 0 00-22.365 0l-7.522 2.603c-17.759 6.146-37.15-3.192-43.418-20.909l-2.552-7.214a34.195 34.195 0 00-14.064-17.56l-6.392-4.01c-16.014-10.046-20.837-31.18-10.769-47.178l3.929-6.242a34.193 34.193 0 005.043-22.002l-.823-7.377c-2.089-18.738 11.383-35.631 30.116-37.764l7.757-.883a34.197 34.197 0 0020.203-9.687l5.605-5.555z" fill="#9A94FF"/><path d="M88.561 56.87c13.329-13.209 34.812-13.209 48.141 0l5.605 5.555a34.191 34.191 0 0020.203 9.688l7.756.883c18.733 2.132 32.205 19.026 30.116 37.764l-.822 7.377a34.19 34.19 0 005.043 22.001l3.928 6.242c10.068 15.999 5.245 37.132-10.768 47.179l-6.392 4.01a34.19 34.19 0 00-14.064 17.56l-2.553 7.214c-6.268 17.717-25.659 27.054-43.418 20.909l-7.522-2.603a34.193 34.193 0 00-22.365 0l-7.522 2.603c-17.76 6.145-37.15-3.192-43.418-20.909l-2.553-7.214a34.192 34.192 0 00-14.064-17.56l-6.392-4.011c-16.013-10.046-20.837-31.179-10.768-47.178l3.928-6.242a34.191 34.191 0 005.043-22.001l-.822-7.377c-2.09-18.738 11.383-35.632 30.116-37.764l7.756-.883a34.194 34.194 0 0020.203-9.688l5.605-5.554z" fill="#6A6D9E"/><mask id="b" style="mask-type:alpha" maskUnits="userSpaceOnUse" x="-35" y="-90" width="203" height="199"><path d="M42.324-79.906c13.329-13.21 34.813-13.21 48.14 0l5.606 5.555a34.195 34.195 0 0020.203 9.688l7.756.883c18.733 2.132 32.206 19.026 30.116 37.764l-.822 7.376a34.193 34.193 0 005.043 22.002l3.928 6.242c10.069 16 5.245 37.132-10.768 47.178l-6.392 4.01a34.192 34.192 0 00-14.064 17.561l-2.553 7.214c-6.268 17.717-25.658 27.054-43.418 20.909l-7.522-2.604a34.206 34.206 0 00-22.365 0l-7.522 2.604c-17.76 6.145-37.15-3.192-43.418-20.909l-2.553-7.214a34.194 34.194 0 00-14.063-17.56l-6.393-4.01C-34.75 46.735-39.573 25.602-29.505 9.603l3.928-6.242a34.194 34.194 0 005.044-22.002l-.823-7.376C-23.446-44.754-9.973-61.648 8.76-63.78l7.756-.883A34.194 34.194 0 0036.72-74.35l5.605-5.555z" fill="#CAC7FF"/></mask><g mask="url(#b)"><path d="M87.968 54.512c13.328-13.21 34.812-13.21 48.14 0l5.605 5.555a34.197 34.197 0 0020.203 9.688l7.757.883c18.733 2.132 32.205 19.026 30.116 37.764l-.823 7.376a34.186 34.186 0 005.044 22.002l3.928 6.242c10.068 15.999 5.245 37.132-10.769 47.178l-6.392 4.011a34.195 34.195 0 00-14.064 17.56l-2.552 7.214c-6.268 17.717-25.659 27.054-43.418 20.909l-7.522-2.604a34.206 34.206 0 00-22.365 0l-7.522 2.604c-17.76 6.145-37.15-3.193-43.419-20.909l-2.552-7.214a34.192 34.192 0 00-14.064-17.56l-6.392-4.011c-16.013-10.046-20.837-31.179-10.768-47.178l3.928-6.242a34.192 34.192 0 005.043-22.002l-.822-7.376C22.198 89.664 35.67 72.77 54.404 70.638l7.756-.883a34.194 34.194 0 0020.203-9.688l5.605-5.555z" fill="#F44E77"/></g></g><path d="M28.633 34.9h-1.651v3.682h-2.073V28.523h3.738c1.188 0 2.105.265 2.75.795s.967 1.278.967 2.245c0 .686-.15 1.26-.45 1.72-.294.456-.743.82-1.346 1.092l2.176 4.11v.097h-2.225L28.633 34.9zm-1.651-1.679h1.672c.52 0 .923-.131 1.209-.394.286-.267.428-.633.428-1.098 0-.475-.136-.848-.407-1.12-.267-.271-.68-.407-1.237-.407h-1.665v3.019zm6.522 1.555c0-.742.143-1.403.428-1.983.286-.58.696-1.03 1.23-1.348.539-.317 1.163-.476 1.872-.476 1.009 0 1.831.308 2.467.925.64.618.997 1.456 1.07 2.515l.015.512c0 1.147-.32 2.068-.96 2.763-.641.691-1.5 1.037-2.578 1.037-1.078 0-1.939-.346-2.584-1.037-.64-.69-.96-1.63-.96-2.819v-.09zm1.997.145c0 .709.133 1.252.4 1.63.267.373.65.56 1.147.56.484 0 .861-.184 1.133-.553.272-.373.408-.967.408-1.782 0-.696-.136-1.235-.408-1.617-.271-.382-.654-.574-1.147-.574-.488 0-.866.192-1.133.574-.267.377-.4.965-.4 1.762zm8.152-3.814l.062.864c.534-.668 1.25-1.002 2.149-1.002.792 0 1.382.232 1.769.698.386.465.584 1.16.594 2.086v4.83H46.23V33.8c0-.423-.092-.73-.276-.919-.185-.193-.49-.29-.92-.29-.561 0-.983.24-1.264.719v5.271h-1.996v-7.475h1.879zm10.425 7.475a2.22 2.22 0 01-.2-.67c-.484.539-1.112.809-1.886.809-.732 0-1.34-.212-1.824-.636a2.048 2.048 0 01-.718-1.603c0-.792.292-1.4.877-1.824.59-.424 1.44-.638 2.55-.642h.918v-.429c0-.345-.09-.622-.27-.829-.174-.207-.453-.31-.835-.31-.337 0-.601.08-.795.241-.189.161-.283.382-.283.663h-1.997c0-.433.134-.833.401-1.202.267-.368.645-.656 1.133-.863a4.09 4.09 0 011.644-.318c.922 0 1.652.232 2.19.698.544.46.816 1.11.816 1.948v3.24c.004.71.103 1.246.297 1.61v.117h-2.018zm-1.65-1.388c.294 0 .566-.065.814-.194a1.3 1.3 0 00.553-.532v-1.285h-.746c-1 0-1.532.346-1.596 1.036l-.007.118a.8.8 0 00.263.615c.175.161.414.242.718.242zm7.012 1.388h-2.004V27.97h2.004v10.612zm1.34-3.793c0-1.165.26-2.093.78-2.784.526-.69 1.242-1.036 2.15-1.036a2.29 2.29 0 011.803.815V27.97h2.003v10.612h-1.803l-.097-.794c-.497.622-1.138.933-1.92.933-.88 0-1.587-.346-2.121-1.037-.53-.695-.795-1.66-.795-2.895zm1.997.145c0 .7.122 1.237.366 1.61s.599.56 1.064.56c.617 0 1.052-.26 1.306-.78v-2.951c-.25-.52-.68-.78-1.293-.78-.962 0-1.443.78-1.443 2.341zm13.665-.034h-1.651v3.682h-2.073V28.523h3.738c1.188 0 2.105.265 2.75.795s.967 1.278.967 2.245c0 .686-.15 1.26-.45 1.72-.294.456-.743.82-1.346 1.092l2.176 4.11v.097h-2.225L76.442 34.9zm-1.651-1.679h1.672c.52 0 .923-.131 1.209-.394.286-.267.428-.633.428-1.098 0-.475-.135-.848-.407-1.12-.267-.271-.68-.407-1.237-.407h-1.665v3.019zm8.94 5.361h-2.003v-7.475h2.003v7.475zm-2.121-9.41a.99.99 0 01.297-.739c.203-.193.477-.29.822-.29.341 0 .613.097.816.29a.98.98 0 01.303.74.975.975 0 01-.31.746c-.203.193-.472.29-.809.29-.336 0-.608-.097-.815-.29a.985.985 0 01-.304-.747zm6.881 7.939c.369 0 .668-.102.898-.304.23-.203.35-.472.36-.809h1.872a2.58 2.58 0 01-.415 1.396c-.271.42-.645.746-1.119.981-.47.23-.99.346-1.561.346-1.069 0-1.912-.34-2.529-1.016-.617-.682-.926-1.621-.926-2.819v-.131c0-1.152.307-2.07.92-2.757.612-.686 1.452-1.03 2.52-1.03.936 0 1.684.268 2.246.802.567.53.855 1.237.864 2.121h-1.872c-.01-.387-.13-.7-.36-.94-.23-.243-.534-.366-.912-.366-.465 0-.817.17-1.057.512-.235.336-.352.884-.352 1.644v.207c0 .77.117 1.322.352 1.658.235.337.592.505 1.071.505zm6.218-5.189c.53-.635 1.195-.953 1.997-.953 1.621 0 2.443.942 2.466 2.825v4.788h-1.996V33.85c0-.429-.093-.744-.277-.947-.184-.207-.49-.31-.919-.31-.585 0-1.008.225-1.27.676v5.313h-1.997V27.97h1.996v3.952zm10.301 6.66a2.209 2.209 0 01-.2-.67c-.484.539-1.113.809-1.886.809-.733 0-1.341-.212-1.824-.636a2.049 2.049 0 01-.719-1.603c0-.792.293-1.4.878-1.824.589-.424 1.439-.638 2.549-.642h.919v-.429c0-.345-.09-.622-.27-.829-.175-.207-.453-.31-.835-.31-.337 0-.602.08-.795.241-.189.161-.283.382-.283.663h-1.997c0-.433.134-.833.401-1.202.267-.368.645-.656 1.133-.863a4.087 4.087 0 011.644-.318c.921 0 1.651.232 2.19.698.544.46.815 1.11.815 1.948v3.24c.005.71.104 1.246.298 1.61v.117h-2.018zm-1.651-1.388c.295 0 .566-.065.815-.194.249-.133.433-.31.553-.532v-1.285h-.746c-1 0-1.532.346-1.596 1.036l-.007.118c0 .249.087.454.262.615.175.161.415.242.719.242zm9.106-4.215a5.432 5.432 0 00-.719-.055c-.755 0-1.25.256-1.485.767v4.891h-1.997v-7.475h1.886l.056.891c.4-.686.955-1.03 1.665-1.03.221 0 .428.03.621.09l-.027 1.921zm.518 1.81c0-1.165.26-2.093.781-2.784.525-.69 1.241-1.036 2.148-1.036.728 0 1.329.271 1.803.815V27.97h2.004v10.612h-1.803l-.097-.794c-.497.622-1.138.933-1.921.933-.879 0-1.586-.346-2.121-1.037-.529-.695-.794-1.66-.794-2.895zm1.997.145c0 .7.122 1.237.366 1.61s.599.56 1.064.56c.617 0 1.052-.26 1.305-.78v-2.951c-.248-.52-.679-.78-1.291-.78-.963 0-1.444.78-1.444 2.341zm-85.776 91.982h1.163v.869h-1.163v1.946h-1.07v-1.946h-3.818v-.627l3.754-5.809h1.134v5.567zm-3.679 0h2.609v-4.111l-.127.23-2.482 3.881zm11.296 2.815H31.33v-.766l2.901-3.224c.43-.487.726-.882.887-1.186a1.98 1.98 0 00.248-.95c0-.437-.133-.796-.398-1.076-.264-.28-.617-.421-1.059-.421-.53 0-.942.152-1.238.455-.291.3-.437.718-.437 1.255h-1.065c0-.771.247-1.395.742-1.871.5-.476 1.165-.714 1.998-.714.78 0 1.395.206 1.848.616.453.407.68.95.68 1.63 0 .825-.526 1.808-1.578 2.947l-2.245 2.436h4.208v.869zm5.625-2.815h1.163v.869h-1.163v1.946h-1.07v-1.946h-3.818v-.627l3.754-5.809h1.134v5.567zm-3.679 0h2.608v-4.111l-.126.23-2.482 3.881zm7.352-1.894h.8c.504-.008.899-.14 1.187-.398.288-.257.431-.604.431-1.042 0-.982-.489-1.474-1.468-1.474-.46 0-.829.133-1.105.398-.273.261-.409.608-.409 1.042H44.49c0-.664.242-1.215.725-1.653.488-.441 1.106-.662 1.854-.662.791 0 1.41.21 1.86.628.45.418.674 1 .674 1.744 0 .365-.12.718-.357 1.06a2.117 2.117 0 01-.962.765c.46.146.816.388 1.065.726.254.338.38.75.38 1.238 0 .752-.245 1.349-.737 1.79-.49.442-1.13.662-1.917.662-.787 0-1.428-.213-1.923-.639-.491-.426-.737-.988-.737-1.687h1.071c0 .442.144.795.432 1.06.288.265.674.397 1.157.397.514 0 .908-.134 1.18-.403.273-.269.41-.654.41-1.157 0-.488-.15-.862-.45-1.123-.3-.261-.731-.395-1.295-.403h-.8v-.869zm9.2-.95l-1.738-.518.265-.87 1.739.645-.052-1.98h.88l-.057 2.009 1.71-.633.265.875-1.768.524 1.14 1.56-.714.541-1.07-1.658-1.037 1.618-.72-.524 1.158-1.589zm5.079 0l-1.74-.518.266-.87 1.739.645-.052-1.98h.88l-.057 2.009 1.71-.633.265.875-1.768.524 1.14 1.56-.714.541-1.07-1.658-1.037 1.618-.72-.524 1.158-1.589zm5.078 0l-1.74-.518.266-.87 1.739.645-.052-1.98h.88l-.057 2.009 1.71-.633.265.875-1.768.524 1.14 1.56-.714.541-1.07-1.658-1.037 1.618-.72-.524 1.158-1.589zm5.078 0l-1.74-.518.266-.87 1.739.645-.052-1.98h.88l-.057 2.009 1.71-.633.265.875-1.768.524 1.14 1.56-.714.541-1.07-1.658-1.037 1.618-.72-.524 1.158-1.589zm8.002 0l-1.738-.518.264-.87 1.74.645-.053-1.98h.881l-.057 2.009 1.71-.633.264.875-1.767.524 1.14 1.56-.714.541-1.07-1.658-1.037 1.618-.72-.524 1.157-1.589zm5.078 0l-1.738-.518.264-.87 1.74.645-.053-1.98h.881l-.057 2.009 1.71-.633.264.875-1.767.524 1.14 1.56-.714.541-1.07-1.658-1.037 1.618-.72-.524 1.157-1.589zm5.078 0l-1.738-.518.264-.87 1.74.645-.053-1.98h.881l-.057 2.009 1.71-.633.264.875-1.767.524 1.14 1.56-.714.541-1.071-1.658-1.036 1.618-.72-.524 1.157-1.589zm5.078 0l-1.739-.518.265-.87 1.74.645-.053-1.98h.881l-.057 2.009 1.71-.633.264.875-1.767.524 1.14 1.56-.714.541-1.071-1.658-1.036 1.618-.72-.524 1.157-1.589zm12.292 5.659h-5.492v-.766l2.901-3.224c.43-.487.726-.882.887-1.186.165-.307.248-.623.248-.95 0-.437-.133-.796-.398-1.076s-.618-.421-1.059-.421c-.53 0-.942.152-1.238.455-.292.3-.437.718-.437 1.255h-1.066c0-.771.248-1.395.743-1.871.499-.476 1.165-.714 1.998-.714.779 0 1.395.206 1.848.616.453.407.679.95.679 1.63 0 .825-.525 1.808-1.577 2.947l-2.245 2.436h4.208v.869zm5.625-2.815h1.163v.869h-1.163v1.946h-1.071v-1.946h-3.817v-.627l3.754-5.809h1.134v5.567zm-3.679 0h2.608v-4.111l-.126.23-2.482 3.881zm6.293-1.388l.426-4.179h4.295v.984h-3.391l-.253 2.286c.41-.242.877-.363 1.399-.363.763 0 1.37.253 1.819.76.449.503.674 1.184.674 2.044 0 .863-.235 1.545-.703 2.044-.464.495-1.115.742-1.952.742-.74 0-1.345-.205-1.813-.616-.468-.41-.735-.978-.8-1.704h1.007c.065.48.236.843.513 1.088.276.242.641.363 1.093.363.496 0 .883-.169 1.163-.507.284-.337.426-.804.426-1.399 0-.56-.153-1.009-.46-1.347-.303-.342-.708-.512-1.215-.512-.464 0-.829.101-1.094.305l-.282.23-.852-.219zm10.311-4.185v.904h-.195c-.829.015-1.49.261-1.981.737-.491.476-.775 1.145-.852 2.009.441-.507 1.044-.76 1.808-.76.729 0 1.311.257 1.744.771.438.515.657 1.179.657 1.992 0 .864-.236 1.555-.709 2.073-.468.518-1.097.777-1.888.777-.802 0-1.453-.307-1.952-.921-.499-.618-.748-1.412-.748-2.383v-.409c0-1.543.328-2.721.984-3.535.661-.818 1.641-1.236 2.942-1.255h.19zm-1.399 3.777c-.364 0-.7.109-1.007.328-.307.219-.52.493-.639.823v.392c0 .69.155 1.247.466 1.669.311.422.699.633 1.163.633.48 0 .856-.176 1.128-.529.277-.353.415-.816.415-1.388 0-.575-.14-1.04-.42-1.393a1.328 1.328 0 00-1.106-.535z" fill="#16194F"/><ellipse cx="242.448" cy="124.101" rx="10.373" ry="10.317" fill="#fff" fill-opacity=".75"/><ellipse cx="231.779" cy="124.101" rx="10.373" ry="10.317" fill="#fff"/></svg>