<svg width="466" height="268" fill="none" xmlns="http://www.w3.org/2000/svg"><rect width="466" height="268" rx="24" fill="#16194F"/><mask id="a" style="mask-type:alpha" maskUnits="userSpaceOnUse" x="0" y="0" width="466" height="268"><rect width="466" height="268" rx="24" fill="#16194F"/></mask><g mask="url(#a)"><path d="M90.56-122.203c22.634-22.555 59.246-22.555 81.88 0l9.034 9.002a58.002 58.002 0 0034.345 16.54l12.671 1.45c31.746 3.633 54.573 32.258 51.051 64.016l-1.405 12.676a57.997 57.997 0 008.482 37.165l6.766 10.81c16.953 27.085 8.806 62.78-18.22 79.827l-10.786 6.805a57.99 57.99 0 00-23.768 29.803l-4.233 12.03c-10.607 30.142-43.593 46.027-73.772 35.527l-12.045-4.191a58 58 0 00-38.12 0l-12.045 4.191c-30.179 10.5-63.165-5.385-73.772-35.527l-4.233-12.03a57.994 57.994 0 00-23.768-29.803l-10.786-6.805c-27.026-17.047-35.173-52.742-18.22-79.827l6.766-10.81a58 58 0 008.482-37.165l-1.405-12.676C-20.063-62.953 2.764-91.578 34.51-95.21l12.67-1.45a58.003 58.003 0 0034.346-16.54l9.034-9.002z" fill="#CAC7FF"/><path d="M349.56-37.203c22.634-22.555 59.246-22.555 81.88 0l9.034 9.002a58 58 0 0034.345 16.54l12.671 1.45c31.746 3.633 54.573 32.258 51.051 64.017l-1.405 12.675a57.999 57.999 0 008.482 37.165l6.766 10.81c16.953 27.085 8.806 62.78-18.22 79.827l-10.786 6.805a57.99 57.99 0 00-23.768 29.803l-4.233 12.03c-10.607 30.142-43.593 46.027-73.772 35.527l-12.045-4.191a58 58 0 00-38.12 0l-12.045 4.191c-30.179 10.5-63.165-5.385-73.772-35.527l-4.233-12.03a57.99 57.99 0 00-23.768-29.803l-10.786-6.805c-27.026-17.047-35.173-52.742-18.22-79.827l6.766-10.81a58 58 0 008.482-37.165l-1.405-12.675c-3.522-31.759 19.306-60.384 51.051-64.017l12.671-1.45a58 58 0 0034.345-16.54l9.034-9.002z" fill="#9A94FF"/><path d="M148.56 96.797c22.634-22.555 59.246-22.555 81.88 0l9.034 9.002a58.002 58.002 0 0034.345 16.54l12.671 1.45c31.746 3.633 54.573 32.258 51.051 64.017l-1.405 12.675a58 58 0 008.482 37.165l6.766 10.81c16.953 27.085 8.806 62.78-18.22 79.827l-10.786 6.805a57.99 57.99 0 00-23.768 29.803l-4.233 12.03c-10.607 30.142-43.593 46.027-73.772 35.527l-12.045-4.191a58 58 0 00-38.12 0l-12.045 4.191c-30.179 10.5-63.166-5.385-73.772-35.527l-4.233-12.03a57.994 57.994 0 00-23.768-29.803l-10.786-6.805c-27.026-17.047-35.173-52.742-18.22-79.827l6.766-10.81a58.002 58.002 0 008.482-37.165l-1.405-12.676c-3.522-31.758 19.305-60.383 51.051-64.016l12.671-1.45a58.002 58.002 0 0034.345-16.54l9.034-9.002z" fill="#16194F"/><mask id="b" style="mask-type:alpha" maskUnits="userSpaceOnUse" x="-60" y="-153" width="343" height="337"><path d="M70.56-135.203c22.634-22.555 59.246-22.555 81.88 0l9.034 9.002a58.002 58.002 0 0034.345 16.54l12.671 1.45c31.746 3.633 54.573 32.258 51.051 64.017l-1.405 12.675a57.997 57.997 0 008.482 37.165l6.766 10.81c16.953 27.085 8.806 62.78-18.22 79.828l-10.786 6.804a57.99 57.99 0 00-23.768 29.803l-4.233 12.03c-10.607 30.142-43.593 46.027-73.772 35.527l-12.045-4.191a58 58 0 00-38.12 0l-12.045 4.191c-30.179 10.5-63.165-5.385-73.772-35.527l-4.233-12.03a57.994 57.994 0 00-23.768-29.803l-10.786-6.805c-27.026-17.047-35.173-52.742-18.22-79.827l6.766-10.81a58 58 0 008.482-37.165l-1.405-12.675c-3.522-31.759 19.305-60.384 51.051-64.017l12.67-1.45a58.002 58.002 0 0034.346-16.54l9.034-9.002z" fill="#CAC7FF"/></mask><g mask="url(#b)"><path d="M147.56 92.797c22.634-22.555 59.246-22.555 81.88 0l9.034 9.002a58.002 58.002 0 0034.345 16.54l12.671 1.45c31.746 3.633 54.573 32.258 51.051 64.017l-1.405 12.675a58 58 0 008.482 37.165l6.766 10.81c16.953 27.085 8.806 62.78-18.22 79.827l-10.786 6.805a57.99 57.99 0 00-23.768 29.803l-4.233 12.03c-10.607 30.142-43.593 46.027-73.772 35.527l-12.045-4.191a58 58 0 00-38.12 0l-12.045 4.191c-30.179 10.5-63.166-5.385-73.772-35.527l-4.233-12.03a57.994 57.994 0 00-23.768-29.803l-10.786-6.805c-27.026-17.047-35.173-52.742-18.22-79.827l6.766-10.81a58.002 58.002 0 008.482-37.165l-1.405-12.676c-3.522-31.758 19.305-60.383 51.051-64.016l12.671-1.45a58.002 58.002 0 0034.345-16.54l9.034-9.002z" fill="#F44E77"/></g></g><path d="M47.84 59.754h-2.8V66h-3.517V48.937h6.34c2.016 0 3.57.45 4.664 1.348 1.094.899 1.641 2.168 1.641 3.809 0 1.164-.254 2.136-.762 2.918-.5.773-1.261 1.39-2.285 1.851l3.691 6.973V66H51.04l-3.2-6.246zm-2.8-2.848h2.835c.883 0 1.566-.222 2.05-.668.485-.453.727-1.074.727-1.863 0-.805-.23-1.438-.691-1.898-.453-.461-1.152-.692-2.098-.692H45.04v5.121zm11.062 2.637c0-1.258.242-2.379.726-3.363.484-.985 1.18-1.746 2.086-2.285.914-.54 1.973-.81 3.176-.81 1.71 0 3.105.524 4.183 1.571 1.086 1.047 1.692 2.469 1.817 4.266l.023.867c0 1.945-.543 3.508-1.629 4.688-1.086 1.171-2.543 1.757-4.37 1.757-1.829 0-3.29-.586-4.383-1.757-1.087-1.172-1.63-2.766-1.63-4.782v-.152zm3.386.246c0 1.203.227 2.125.68 2.766.453.633 1.102.949 1.945.949.82 0 1.461-.313 1.922-.938.461-.632.692-1.64.692-3.023 0-1.18-.23-2.094-.692-2.742-.46-.649-1.11-.973-1.945-.973-.828 0-1.469.324-1.922.973-.453.64-.68 1.636-.68 2.988zm13.828-6.469l.106 1.465c.906-1.133 2.121-1.7 3.644-1.7 1.344 0 2.344.395 3 1.184.657.79.993 1.97 1.008 3.54V66h-3.386v-8.11c0-.718-.157-1.238-.47-1.558-.312-.328-.831-.492-1.558-.492-.953 0-1.668.406-2.144 1.219V66h-3.387V53.32h3.187zM91 66c-.156-.305-.27-.684-.34-1.137-.82.914-1.887 1.371-3.2 1.371-1.241 0-2.272-.359-3.093-1.078-.812-.719-1.219-1.625-1.219-2.719 0-1.343.496-2.374 1.489-3.093 1-.719 2.441-1.082 4.324-1.09h1.558v-.727c0-.586-.152-1.054-.457-1.406-.296-.352-.769-.527-1.418-.527-.57 0-1.019.136-1.347.41-.32.273-.48.648-.48 1.125H83.43c0-.734.226-1.414.68-2.04.453-.624 1.093-1.112 1.921-1.464.828-.36 1.758-.54 2.79-.54 1.562 0 2.8.395 3.714 1.184.922.782 1.383 1.883 1.383 3.305v5.496c.008 1.203.176 2.114.504 2.73v.2H91zm-2.8-2.355c.5 0 .96-.11 1.382-.329.422-.226.734-.527.938-.902v-2.18h-1.266c-1.695 0-2.598.586-2.707 1.758l-.012.2c0 .421.149.769.446 1.042.296.274.703.41 1.218.41zM100.093 66h-3.399V48h3.399v18zm2.273-6.434c0-1.976.442-3.55 1.324-4.722.891-1.172 2.106-1.758 3.645-1.758 1.234 0 2.254.46 3.059 1.383V48h3.398v18h-3.059l-.164-1.348c-.843 1.055-1.929 1.582-3.258 1.582-1.492 0-2.691-.586-3.597-1.757-.899-1.18-1.348-2.817-1.348-4.91zm3.387.246c0 1.188.207 2.098.621 2.731.414.633 1.016.95 1.805.95 1.047 0 1.785-.442 2.215-1.325v-5.004c-.422-.883-1.153-1.324-2.192-1.324-1.633 0-2.449 1.324-2.449 3.972zm23.18-.058h-2.801V66h-3.516V48.937h6.34c2.016 0 3.57.45 4.664 1.348 1.094.899 1.641 2.168 1.641 3.809 0 1.164-.254 2.136-.762 2.918-.5.773-1.262 1.39-2.285 1.851l3.691 6.973V66h-3.773l-3.199-6.246zm-2.801-2.848h2.836c.883 0 1.566-.222 2.051-.668.484-.453.726-1.074.726-1.863 0-.805-.23-1.438-.691-1.898-.453-.461-1.153-.692-2.098-.692h-2.824v5.121zM141.297 66h-3.399V53.32h3.399V66zm-3.598-15.96c0-.509.168-.927.504-1.255.344-.328.809-.492 1.395-.492.578 0 1.039.164 1.382.492.344.328.516.746.516 1.254 0 .516-.176.938-.527 1.266-.344.328-.801.492-1.371.492-.571 0-1.032-.164-1.383-.492-.344-.328-.516-.75-.516-1.266zm11.672 13.464c.625 0 1.133-.172 1.524-.516.39-.343.593-.8.609-1.37h3.176a4.375 4.375 0 01-.703 2.366c-.461.711-1.094 1.266-1.899 1.664-.797.391-1.68.586-2.648.586-1.813 0-3.242-.574-4.289-1.722-1.047-1.157-1.571-2.75-1.571-4.782v-.222c0-1.953.52-3.512 1.559-4.676 1.039-1.164 2.465-1.746 4.277-1.746 1.586 0 2.856.453 3.809 1.36.961.898 1.449 2.097 1.465 3.597h-3.176c-.016-.656-.219-1.188-.609-1.594-.391-.414-.907-.62-1.547-.62-.789 0-1.387.288-1.793.866-.399.57-.598 1.5-.598 2.79v.35c0 1.306.199 2.243.598 2.813.398.57 1.004.856 1.816.856zm10.547-8.8c.898-1.079 2.027-1.618 3.387-1.618 2.75 0 4.144 1.598 4.183 4.793V66h-3.386v-8.027c0-.727-.157-1.262-.469-1.606-.313-.351-.832-.527-1.559-.527-.992 0-1.711.383-2.156 1.148V66h-3.387V48h3.387v6.703zM177.391 66c-.157-.305-.27-.684-.34-1.137-.821.914-1.887 1.371-3.199 1.371-1.243 0-2.274-.359-3.094-1.078-.813-.719-1.219-1.625-1.219-2.719 0-1.343.496-2.374 1.488-3.093 1-.719 2.442-1.082 4.325-1.09h1.558v-.727c0-.586-.152-1.054-.457-1.406-.297-.352-.769-.527-1.418-.527-.57 0-1.019.136-1.347.41-.321.273-.481.648-.481 1.125h-3.387c0-.734.227-1.414.68-2.04.453-.624 1.094-1.112 1.922-1.464.828-.36 1.758-.54 2.789-.54 1.562 0 2.801.395 3.715 1.184.922.782 1.383 1.883 1.383 3.305v5.496c.007 1.203.175 2.114.503 2.73v.2h-3.421zm-2.801-2.355c.5 0 .961-.11 1.383-.329.422-.226.734-.527.937-.902v-2.18h-1.265c-1.696 0-2.598.586-2.707 1.758l-.012.2c0 .421.148.769.445 1.042.297.274.703.41 1.219.41zm15.445-7.149a9.2 9.2 0 00-1.219-.094c-1.281 0-2.121.434-2.519 1.301V66h-3.387V53.32h3.199l.094 1.512c.68-1.164 1.621-1.746 2.824-1.746.375 0 .727.05 1.055.152l-.047 3.258zm.879 3.07c0-1.976.441-3.55 1.324-4.722.891-1.172 2.106-1.758 3.645-1.758 1.234 0 2.254.46 3.058 1.383V48h3.399v18h-3.059l-.164-1.348c-.844 1.055-1.929 1.582-3.258 1.582-1.492 0-2.691-.586-3.597-1.757-.899-1.18-1.348-2.817-1.348-4.91zm3.387.246c0 1.188.207 2.098.621 2.731.414.633 1.016.95 1.805.95 1.046 0 1.785-.442 2.214-1.325v-5.004c-.421-.883-1.152-1.324-2.191-1.324-1.633 0-2.449 1.324-2.449 3.972zM48.809 215.225h1.972v1.474H48.81V220h-1.817v-3.301h-6.474v-1.064l6.367-9.854h1.924v9.444zm-6.24 0h4.423v-6.973l-.215.391-4.209 6.582zM61.728 220h-9.317v-1.299l4.922-5.469c.73-.826 1.23-1.497 1.504-2.011.28-.521.42-1.058.42-1.612 0-.742-.225-1.351-.674-1.826-.45-.475-1.048-.713-1.797-.713-.898 0-1.598.257-2.1.772-.494.508-.742 1.217-.742 2.129H52.14c0-1.309.42-2.367 1.26-3.174.846-.807 1.975-1.211 3.388-1.211 1.322 0 2.367.348 3.135 1.045.768.69 1.152 1.611 1.152 2.764 0 1.399-.892 3.066-2.676 5l-3.808 4.13h7.138V220zm9.54-4.775h1.973v1.474H71.27V220h-1.816v-3.301h-6.475v-1.064l6.368-9.854h1.923v9.444zm-6.24 0h4.424v-6.973l-.215.391-4.209 6.582zm12.471-3.213h1.357c.853-.013 1.524-.238 2.012-.674.488-.436.733-1.026.733-1.768 0-1.666-.83-2.5-2.49-2.5-.782 0-1.407.225-1.876.674-.462.443-.693 1.032-.693 1.768h-1.807c0-1.127.41-2.061 1.23-2.803.828-.749 1.876-1.123 3.145-1.123 1.341 0 2.393.355 3.155 1.064.761.71 1.142 1.696 1.142 2.959 0 .619-.202 1.218-.605 1.797-.397.58-.941 1.013-1.631 1.299.781.247 1.383.658 1.806 1.231.43.572.645 1.272.645 2.099 0 1.276-.417 2.289-1.25 3.037-.833.749-1.917 1.123-3.252 1.123-1.334 0-2.422-.361-3.262-1.084-.833-.722-1.25-1.676-1.25-2.861h1.817c0 .749.244 1.348.732 1.797.489.449 1.143.674 1.963.674.873 0 1.54-.228 2.002-.684.462-.456.693-1.11.693-1.963 0-.827-.254-1.461-.761-1.904-.508-.443-1.24-.671-2.198-.684H77.5v-1.474zm15.606-1.612l-2.95-.879.45-1.474 2.949 1.094-.088-3.36h1.494l-.098 3.408 2.9-1.074.45 1.485-2.998.888 1.933 2.647-1.21.918-1.817-2.813-1.758 2.744-1.22-.888 1.963-2.696zm8.613 0l-2.95-.879.45-1.474 2.949 1.094-.088-3.36h1.494l-.097 3.408 2.9-1.074.449 1.485-2.998.888 1.934 2.647-1.211.918-1.817-2.813-1.757 2.744-1.221-.888 1.963-2.696zm8.613 0l-2.949-.879.449-1.474 2.949 1.094-.088-3.36h1.495l-.098 3.408 2.9-1.074.449 1.485-2.998.888 1.934 2.647-1.211.918-1.816-2.813-1.758 2.744-1.221-.888 1.963-2.696zm8.613 0l-2.949-.879.449-1.474 2.95 1.094-.088-3.36h1.494l-.098 3.408 2.901-1.074.449 1.485-2.998.888 1.933 2.647-1.211.918-1.816-2.813-1.758 2.744-1.221-.888 1.963-2.696zm13.575 0l-2.95-.879.45-1.474 2.949 1.094-.088-3.36h1.494l-.098 3.408 2.901-1.074.449 1.485-2.998.888 1.933 2.647-1.21.918-1.817-2.813-1.758 2.744-1.22-.888 1.963-2.696zm8.613 0l-2.949-.879.449-1.474 2.949 1.094-.088-3.36h1.494l-.097 3.408 2.9-1.074.449 1.485-2.998.888 1.934 2.647-1.211.918-1.817-2.813-1.757 2.744-1.221-.888 1.963-2.696zm8.613 0l-2.949-.879.449-1.474 2.949 1.094-.088-3.36h1.495l-.098 3.408 2.9-1.074.45 1.485-2.999.888 1.934 2.647-1.211.918-1.816-2.813-1.758 2.744-1.221-.888 1.963-2.696zm8.613 0l-2.949-.879.449-1.474 2.95 1.094-.088-3.36h1.494l-.098 3.408 2.901-1.074.449 1.485-2.998.888 1.933 2.647-1.211.918-1.816-2.813-1.758 2.744-1.221-.888 1.963-2.696zm20.85 9.6h-9.316v-1.299l4.921-5.469c.73-.826 1.231-1.497 1.504-2.011.28-.521.42-1.058.42-1.612 0-.742-.224-1.351-.674-1.826-.449-.475-1.048-.713-1.796-.713-.899 0-1.599.257-2.1.772-.495.508-.742 1.217-.742 2.129h-1.807c0-1.309.42-2.367 1.26-3.174.846-.807 1.976-1.211 3.389-1.211 1.321 0 2.366.348 3.134 1.045.769.69 1.153 1.611 1.153 2.764 0 1.399-.892 3.066-2.676 5l-3.809 4.13h7.139V220zm9.541-4.775h1.973v1.474h-1.973V220h-1.816v-3.301h-6.475v-1.064l6.367-9.854h1.924v9.444zm-6.24 0h4.424v-6.973l-.215.391-4.209 6.582zm10.674-2.354l.722-7.09h7.285v1.67h-5.752l-.429 3.877c.696-.41 1.487-.615 2.373-.615 1.295 0 2.324.43 3.086 1.289.761.853 1.142 2.008 1.142 3.467 0 1.465-.397 2.62-1.191 3.467-.788.839-1.891 1.259-3.311 1.259-1.256 0-2.282-.348-3.076-1.045-.794-.696-1.247-1.66-1.357-2.89h1.709c.11.814.4 1.429.869 1.845.469.411 1.087.616 1.855.616.84 0 1.498-.287 1.973-.86.482-.573.723-1.364.723-2.373 0-.95-.261-1.712-.782-2.285-.514-.579-1.201-.869-2.06-.869-.788 0-1.406.173-1.856.518l-.478.39-1.445-.371zm17.49-7.1v1.534h-.332c-1.406.026-2.526.442-3.36 1.25-.833.807-1.315 1.943-1.445 3.408.749-.859 1.771-1.289 3.067-1.289 1.236 0 2.223.436 2.958 1.308.743.873 1.114 1.999 1.114 3.379 0 1.465-.401 2.637-1.201 3.516-.795.879-1.862 1.318-3.204 1.318-1.36 0-2.464-.521-3.31-1.562-.846-1.048-1.27-2.396-1.27-4.043v-.694c0-2.617.557-4.615 1.67-5.996 1.12-1.386 2.784-2.096 4.991-2.129h.322zm-2.373 6.407c-.619 0-1.188.185-1.709.556-.521.371-.882.837-1.084 1.397v.664c0 1.172.263 2.116.791 2.832.527.716 1.185 1.074 1.972 1.074.814 0 1.452-.299 1.915-.898.468-.599.703-1.384.703-2.354 0-.976-.238-1.764-.713-2.363-.469-.606-1.094-.908-1.875-.908z" fill="#fff"/><circle cx="408.5" cy="210.5" r="17.5" fill="#fff" fill-opacity=".75"/><circle cx="390.5" cy="210.5" r="17.5" fill="#fff"/></svg>