<svg width="337" height="164" fill="none" xmlns="http://www.w3.org/2000/svg"><path d="M4.313 148.758l2.375 6.703 2.36-6.703h2.502V158H9.64v-2.526l.19-4.361L7.335 158H6.027l-2.488-6.881.19 4.355V158H1.825v-9.242h2.488zm16.492 4.83c0 .91-.161 1.708-.483 2.393-.321.686-.783 1.215-1.383 1.587-.597.373-1.283.559-2.057.559-.766 0-1.45-.184-2.05-.552-.601-.368-1.067-.893-1.397-1.575-.33-.685-.497-1.472-.501-2.361v-.457c0-.91.163-1.71.488-2.399.33-.694.794-1.225 1.39-1.594.601-.372 1.287-.558 2.057-.558s1.454.186 2.05.558c.601.369 1.065.9 1.39 1.594.33.689.496 1.487.496 2.393v.412zm-1.93-.419c0-.969-.174-1.705-.52-2.209-.348-.503-.843-.755-1.486-.755-.639 0-1.132.25-1.479.749-.347.495-.523 1.223-.527 2.184v.45c0 .944.174 1.676.52 2.197.348.52.847.78 1.499.78.639 0 1.13-.249 1.473-.749.342-.503.516-1.235.52-2.196v-.451zM29.705 158H27.8l-3.707-6.081V158h-1.904v-9.242h1.904l3.713 6.094v-6.094h1.898V158z" fill="#6A6D9E"/><rect width="14" height="134" rx="7" fill="#554DDE"/><rect x="18" y="51" width="14" height="83" rx="7" fill="#F44E77"/><path d="M63.782 150.3h-2.83v7.7h-1.905v-7.7h-2.793v-1.542h7.528v1.542zm8.087-1.542v6.087c0 1.012-.317 1.811-.952 2.4-.63.588-1.494.882-2.59.882-1.079 0-1.936-.286-2.57-.857-.635-.571-.96-1.356-.972-2.355v-6.157h1.904v6.1c0 .605.144 1.047.432 1.327.292.275.694.412 1.206.412 1.07 0 1.615-.563 1.632-1.688v-6.151h1.91zm7.122 5.237h-3.656v2.475h4.291V158h-6.195v-9.242h6.182v1.542h-4.278v2.203h3.656v1.492z" fill="#6A6D9E"/><rect x="52" y="36" width="14" height="98" rx="7" fill="#554DDE"/><rect x="69" y="94" width="14" height="40" rx="7" fill="#F44E77"/><path d="M113.023 155.334l1.245-6.576h1.898L114.115 158h-1.917l-1.504-6.183-1.505 6.183h-1.917l-2.05-9.242h1.898l1.251 6.563 1.523-6.563h1.612l1.517 6.576zm9.738-1.339h-3.657v2.475h4.292V158H117.2v-9.242h6.183v1.542h-4.279v2.203h3.657v1.492zm1.752 4.005v-9.242h2.843c.813 0 1.539.184 2.178.552a3.796 3.796 0 011.504 1.562c.36.672.54 1.438.54 2.297v.426c0 .859-.178 1.623-.534 2.291a3.77 3.77 0 01-1.491 1.555c-.643.369-1.369.555-2.178.559h-2.862zm1.904-7.7v6.17h.92c.745 0 1.314-.243 1.708-.73.393-.486.594-1.183.603-2.088v-.489c0-.939-.195-1.65-.584-2.133-.389-.486-.959-.73-1.708-.73h-.939z" fill="#6A6D9E"/><rect x="103" y="69" width="14" height="65" rx="7" fill="#554DDE"/><rect x="120" y="109" width="14" height="25" rx="7" fill="#F44E77"/><path d="M216.386 154.223h-3.657V158h-1.904v-9.242h6.018v1.542h-4.114v2.387h3.657v1.536zm4.983.394h-1.517V158h-1.905v-9.242h3.434c1.092 0 1.934.243 2.527.73.592.486.888 1.174.888 2.063 0 .63-.137 1.157-.412 1.58-.271.419-.684.754-1.238 1.003l2 3.777V158h-2.044l-1.733-3.383zm-1.517-1.543h1.536c.478 0 .848-.12 1.111-.362.262-.245.393-.581.393-1.009 0-.436-.125-.779-.374-1.028-.246-.25-.625-.375-1.137-.375h-1.529v2.774zm8.423 4.926h-1.904v-9.242h1.904V158z" fill="#6A6D9E"/><rect x="204" y="77" width="14" height="57" rx="7" fill="#554DDE"/><rect x="221" y="118" width="14" height="16" rx="7" fill="#F44E77"/><path d="M314.618 155.575c0-.36-.127-.635-.381-.825-.254-.195-.711-.398-1.371-.609-.66-.216-1.183-.428-1.568-.635-1.05-.567-1.574-1.331-1.574-2.292 0-.499.139-.943.419-1.333.283-.393.687-.7 1.212-.92.529-.22 1.121-.33 1.777-.33.66 0 1.249.12 1.765.362.516.237.916.573 1.2 1.009.287.436.431.931.431 1.485h-1.904c0-.423-.133-.751-.4-.984-.266-.237-.641-.355-1.123-.355-.466 0-.828.099-1.086.298a.924.924 0 00-.387.775c0 .3.15.552.451.755.304.203.751.394 1.339.571 1.083.326 1.873.73 2.368 1.213.495.482.742 1.083.742 1.802 0 .8-.302 1.429-.907 1.886-.606.453-1.42.679-2.444.679a4.757 4.757 0 01-1.943-.387c-.584-.263-1.03-.62-1.339-1.073-.305-.453-.457-.978-.457-1.574h1.911c0 1.02.609 1.53 1.828 1.53.453 0 .806-.091 1.06-.273a.909.909 0 00.381-.775zm10.2-6.817v6.087c0 1.012-.317 1.811-.952 2.4-.63.588-1.494.882-2.59.882-1.079 0-1.936-.286-2.57-.857-.635-.571-.959-1.356-.972-2.355v-6.157h1.905v6.1c0 .605.144 1.047.431 1.327.292.275.694.412 1.206.412 1.071 0 1.615-.563 1.632-1.688v-6.151h1.91zm9.078 9.242h-1.905l-3.707-6.081V158h-1.904v-9.242h1.904l3.714 6.094v-6.094h1.898V158z" fill="#6A6D9E"/><rect x="306" y="20" width="14" height="114" rx="7" fill="#554DDE"/><rect x="323" y="74" width="14" height="60" rx="7" fill="#F44E77"/><path d="M163.782 150.3h-2.831v7.7h-1.904v-7.7h-2.793v-1.542h7.528v1.542zm8.614 7.7h-1.904v-3.961h-3.714V158h-1.904v-9.242h1.904v3.745h3.714v-3.745h1.904V158zm8.665-9.242v6.087c0 1.012-.318 1.811-.953 2.4-.63.588-1.493.882-2.589.882-1.08 0-1.936-.286-2.571-.857-.635-.571-.959-1.356-.971-2.355v-6.157h1.904v6.1c0 .605.144 1.047.431 1.327.292.275.695.412 1.207.412 1.07 0 1.614-.563 1.631-1.688v-6.151h1.911z" fill="#6A6D9E"/><rect x="154" y="48" width="14" height="86" rx="7" fill="#554DDE"/><rect x="170" y="85" width="14" height="49" rx="7" fill="#F44E77"/><path d="M263.618 155.575c0-.36-.127-.635-.381-.825-.254-.195-.711-.398-1.371-.609-.66-.216-1.183-.428-1.568-.635-1.05-.567-1.574-1.331-1.574-2.292 0-.499.139-.943.419-1.333.283-.393.687-.7 1.212-.92.529-.22 1.121-.33 1.777-.33.66 0 1.249.12 1.765.362.516.237.916.573 1.2 1.009.287.436.431.931.431 1.485h-1.904c0-.423-.133-.751-.4-.984-.266-.237-.641-.355-1.123-.355-.466 0-.828.099-1.086.298a.924.924 0 00-.387.775c0 .3.15.552.451.755.304.203.751.394 1.339.571 1.083.326 1.873.73 2.368 1.213.495.482.742 1.083.742 1.802 0 .8-.302 1.429-.907 1.886-.606.453-1.42.679-2.444.679a4.757 4.757 0 01-1.943-.387c-.584-.263-1.03-.62-1.339-1.073-.305-.453-.457-.978-.457-1.574h1.911c0 1.02.609 1.53 1.828 1.53.453 0 .806-.091 1.06-.273a.909.909 0 00.381-.775zm8.423.521h-3.339l-.635 1.904h-2.025l3.441-9.242h1.765l3.459 9.242h-2.025l-.641-1.904zm-2.825-1.543h2.311l-1.162-3.459-1.149 3.459zm12.55-4.253h-2.831v7.7h-1.905v-7.7h-2.793v-1.542h7.529v1.542z" fill="#6A6D9E"/><rect x="255" y="51" width="14" height="83" rx="7" fill="#554DDE"/><rect x="272" y="94" width="14" height="40" rx="7" fill="#F44E77"/></svg>