<svg width="48" height="53" fill="none" xmlns="http://www.w3.org/2000/svg"><g clip-path="url(#clip0_10_0)"><path d="M33.608 4.794L13.895 1.982C6.221.887 0 6.284 0 14.036v19.152c0 7.752 6.221 14.923 13.895 16.018l19.713 2.812c7.674 1.094 13.895-4.302 13.895-12.054V20.812c0-7.752-6.22-14.923-13.895-16.018z" fill="#4EE0F4"/><path d="M33.856 2.645L13.993 1.093C6.265.49 0 6.284 0 14.036v19.152c0 7.752 6.265 14.525 13.993 15.129l19.863 1.552c7.728.603 13.993-5.191 13.993-12.943V17.774c0-7.752-6.264-14.525-13.993-15.129z" fill="#F44E77"/><path d="M33.964 0H14.036C6.284 0 0 6.284 0 14.036v19.152c0 7.752 6.284 14.036 14.036 14.036h19.928C41.716 47.224 48 40.94 48 33.188V14.036C48 6.284 41.716 0 33.964 0z" fill="#6F42CE"/><g filter="url(#filter0_dd_10_0)"><path d="M12.96 14.416a4.027 4.027 0 014.027-4.027h7.162c2.53 0 4.757.542 6.681 1.625 1.946 1.058 3.449 2.581 4.508 4.57 1.081 1.99 1.622 4.333 1.622 7.028 0 2.695-.54 5.037-1.622 7.027-1.06 1.99-2.562 3.526-4.508 4.609-1.924 1.058-4.151 1.587-6.68 1.587h-7.163a4.027 4.027 0 01-4.027-4.027V14.416zm10.865 15.467c1.643 0 2.951-.541 3.924-1.624.995-1.109 1.492-2.657 1.492-4.647 0-1.99-.497-3.526-1.492-4.61-.973-1.107-2.28-1.662-3.924-1.662H21.41a.796.796 0 00-.796.797v10.95c0 .44.357.796.796.796h2.415z" fill="#fff"/></g></g><defs><clipPath id="clip0_10_0"><path fill="#fff" d="M0 0h48v53H0z"/></clipPath><filter id="filter0_dd_10_0" x="12.562" y="9.792" width="24.796" height="27.639" filterUnits="userSpaceOnUse" color-interpolation-filters="sRGB"><feFlood flood-opacity="0" result="BackgroundImageFix"/><feColorMatrix in="SourceAlpha" values="0 0 0 0 0 0 0 0 0 0 0 0 0 0 0 0 0 0 127 0" result="hardAlpha"/><feOffset dy=".199"/><feGaussianBlur stdDeviation=".199"/><feColorMatrix values="0 0 0 0 0 0 0 0 0 0 0 0 0 0 0 0 0 0 0.1 0"/><feBlend in2="BackgroundImageFix" result="effect1_dropShadow_10_0"/><feColorMatrix in="SourceAlpha" values="0 0 0 0 0 0 0 0 0 0 0 0 0 0 0 0 0 0 127 0" result="hardAlpha"/><feOffset dy="-.199"/><feGaussianBlur stdDeviation=".199"/><feColorMatrix values="0 0 0 0 0 0 0 0 0 0 0 0 0 0 0 0 0 0 0.05 0"/><feBlend in2="effect1_dropShadow_10_0" result="effect2_dropShadow_10_0"/><feBlend in="SourceGraphic" in2="effect2_dropShadow_10_0" result="shape"/></filter></defs></svg>